<?xml version="1.0" encoding="iso-8859-1"?>
<!-- Generator: Adobe Illustrator 16.0.0, SVG Export Plug-In . SVG Version: 6.00 Build 0)  -->
<!DOCTYPE svg PUBLIC "-//W3C//DTD SVG 1.1//EN" "http://www.w3.org/Graphics/SVG/1.1/DTD/svg11.dtd">
<svg version="1.1" id="Capa_1" xmlns="http://www.w3.org/2000/svg" xmlns:xlink="http://www.w3.org/1999/xlink" x="0px" y="0px"
	 width="562.873px" height="562.873px" viewBox="0 0 562.873 562.873" style="enable-background:new 0 0 562.873 562.873;"
	 xml:space="preserve">
<g>
	<g>
		<path d="M89.995,175.519c-25.034,24.25-39.095,54.45-45.218,88.468c-1.53,8.498-2.072,17.173-3.082,25.766
			c-0.11,0.936-0.312,1.859-0.474,2.791c0,8.381,0,16.76,0,25.141c0.535,5.758,1.037,11.518,1.612,17.273
			c2.714,27.115,9.395,53.295,18.378,78.969c12.212,34.902,29.648,66.697,51.831,95.596c0.688,0.92,1.38,1.838,2.075,2.754
			c9.532,12.527,19.431,24.703,31.937,34.451c2.846,2.219,5.75,4.215,8.715,5.986c16.068,11.113,33.908,12.641,52.473,6.859
			c0.508-0.158,1.013-0.326,1.521-0.488c8.326-2.158,16.398-5.107,24.379-8.396c5.579-2.299,11.221-4.33,16.943-5.988
			c9.385-2.629,29.869-4.52,30.349-4.523c0.48,0,0.961-0.006,1.444,0.004c9.931,0.189,19.521,1.891,28.905,4.52
			c5.723,1.658,11.365,3.689,16.943,5.988c7.98,3.289,16.053,6.238,24.379,8.396c0.508,0.158,1.012,0.33,1.52,0.488
			c18.566,5.781,36.406,4.254,52.475-6.859c2.965-1.77,5.871-3.768,8.717-5.986c12.506-9.748,22.406-21.924,31.938-34.451
			c0.697-0.916,1.389-1.834,2.074-2.754c22.186-28.898,39.619-60.693,51.83-95.596c8.984-25.672,15.664-51.852,18.379-78.969
			c0.576-5.752,1.076-11.516,1.613-17.273c0-8.381,0-16.76,0-25.141c-0.16-0.932-0.365-1.855-0.475-2.791
			c-1.01-8.593-1.553-17.268-3.082-25.766c-6.123-34.018-20.184-64.217-45.217-88.468c-3.375-3.268-6.842-6.331-10.402-9.198
			c-19.463-16.426-42.652-25.052-68.062-29.269c-25.826-4.287-50.064,1.355-74.039,9.985c-12.338,4.44-38.333,13.437-38.939,13.611
			c-0.606-0.174-26.601-9.171-38.938-13.611c-23.975-8.629-48.21-14.272-74.04-9.985c-25.414,4.22-48.602,12.846-68.064,29.269
			C96.837,169.188,93.367,172.25,89.995,175.519z"/>
		<path d="M203.129,96.806c13.011,14.085,28.191,24.915,46.934,30.126c9.244,2.57,18.654,3.519,28.241,3.011
			c2.28-0.119,2.732-1.028,2.874-3.097c1.949-28.718-7.115-53.908-24.226-76.595c-20.312-26.937-47.406-42.803-80.23-49.382
			c-1.569-0.315-3.148-0.578-4.725-0.869c-1.334,0-2.665,0-3.999,0c-0.784,10.768-0.508,21.491,1.487,32.127
			C174.167,57.082,186.058,78.324,203.129,96.806z"/>
	</g>
</g>
<g>
</g>
<g>
</g>
<g>
</g>
<g>
</g>
<g>
</g>
<g>
</g>
<g>
</g>
<g>
</g>
<g>
</g>
<g>
</g>
<g>
</g>
<g>
</g>
<g>
</g>
<g>
</g>
<g>
</g>
</svg>
